Coordinates
version=1
nRows=34
nColumns=38
inDegrees=no

Units are S.I. units (second, meters, Newtons, ...)
If the header above contains a line with 'inDegrees', this indicates whether rotational values are in degrees (yes) or radians (no).

endheader
time	pelvis_tilt	pelvis_list	pelvis_rotation	pelvis_tx	pelvis_ty	pelvis_tz	hip_flexion_r	hip_adduction_r	hip_rotation_r	knee_angle_r	ankle_angle_r	subtalar_angle_r	mtp_angle_r	hip_flexion_l	hip_adduction_l	hip_rotation_l	knee_angle_l	ankle_angle_l	subtalar_angle_l	mtp_angle_l	lumbar_extension	lumbar_bending	lumbar_rotation	arm_flex_r	arm_add_r	arm_rot_r	elbow_flex_r	pro_sup_r	wrist_flex_r	wrist_dev_r	arm_flex_l	arm_add_l	arm_rot_l	elbow_flex_l	pro_sup_l	wrist_flex_l	wrist_dev_l
0	1.91006	1.51094	-0.226532	0.693116	-0.684765	0.913471	0.354414	-0.0273451	-0.421509	0.407394	0.06212	0	0	-0.0728993	-0.239408	-0.188035	0.818533	-0.034121	0	0	-0.112308	0.121073	-0.152638	-0.07472	-0.300076	0.425275	0.601546	1.2278	0	0	-0.0157716	-0.380753	0.330539	0.776843	1.01531	0	0
0.01	1.79932	1.50745	-0.119259	0.695814	-0.674968	0.913838	0.348979	-0.0145848	-0.414721	0.404436	0.0689305	0	0	-0.0340317	-0.249833	-0.17061	0.876913	-0.0800594	0	0	-0.104569	0.126195	-0.148208	-0.0745762	-0.306444	0.441384	0.603121	1.21325	0	0	-0.0268228	-0.380186	0.338889	0.777941	1.00788	0	0
0.02	1.76187	1.50396	-0.0861463	0.698447	-0.665225	0.914666	0.339282	-0.00265907	-0.406238	0.401773	0.0756866	0	0	-0.00146977	-0.257833	-0.156597	0.929783	-0.112256	0	0	-0.102164	0.130139	-0.141247	-0.0753226	-0.312932	0.452828	0.607717	1.20027	0	0	-0.0349116	-0.379347	0.348334	0.778957	1.00123	0	0
0.03	1.78662	1.50158	-0.114499	0.700925	-0.655483	0.916011	0.324946	0.00696329	-0.398615	0.399016	0.0822273	0	0	0.0247723	-0.263032	-0.144963	0.975831	-0.128045	0	0	-0.104419	0.132197	-0.134525	-0.0754907	-0.316715	0.454136	0.610235	1.20334	0	0	-0.0417576	-0.37787	0.355111	0.77809	1.00316	0	0
0.04	1.83773	1.50041	-0.168746	0.70334	-0.645825	0.917649	0.308231	0.0146147	-0.391003	0.3952	0.0878125	0	0	0.0475037	-0.265638	-0.134725	1.01543	-0.134948	0	0	-0.108722	0.132527	-0.127833	-0.0754382	-0.320056	0.454702	0.613814	1.20609	0	0	-0.0470674	-0.377306	0.365199	0.776127	1.00302	0	0
0.05	1.89317	1.50056	-0.227068	0.705573	-0.636138	0.919502	0.290455	0.0200058	-0.384209	0.390018	0.09248	0	0	0.0685617	-0.265184	-0.124316	1.04914	-0.140574	0	0	-0.114727	0.129209	-0.116748	-0.0624783	-0.288681	0.172649	0.572128	0.463566	0	0	-0.0479746	-0.379474	0.386536	0.775742	0.991266	0	0
0.06	2.00077	1.50096	-0.338357	0.707777	-0.626822	0.921624	0.269202	0.0231605	-0.3785	0.384621	0.0971547	0	0	0.085441	-0.262769	-0.116274	1.07985	-0.136354	0	0	-0.122792	0.126916	-0.113868	-0.0732479	-0.321623	0.439401	0.613425	1.25354	0	0	-0.0555905	-0.378565	0.391259	0.773475	0.987505	0	0
0.07	2.08607	1.5025	-0.428391	0.709978	-0.617717	0.923634	0.250289	0.0248326	-0.373144	0.378407	0.1017	0	0	0.104551	-0.258752	-0.111022	1.10832	-0.122282	0	0	-0.129765	0.121953	-0.1056	-0.0710984	-0.322866	0.434602	0.61383	1.26505	0	0	-0.0585845	-0.378039	0.401837	0.769985	0.986821	0	0
0.08	2.16143	1.50418	-0.508168	0.712106	-0.608697	0.925529	0.231894	0.0261062	-0.368991	0.370686	0.105974	0	0	0.124201	-0.254599	-0.107759	1.13227	-0.104968	0	0	-0.135351	0.116738	-0.0979355	-0.0687998	-0.323935	0.429249	0.614922	1.27383	0	0	-0.0618859	-0.377203	0.410999	0.766739	0.986856	0	0
0.09	2.23393	1.50618	-0.585175	0.714138	-0.599772	0.927339	0.213968	0.0267579	-0.364853	0.362175	0.1098	0	0	0.143515	-0.249962	-0.106438	1.15021	-0.0889832	0	0	-0.139988	0.11114	-0.09059	-0.0665661	-0.325067	0.42339	0.616785	1.28166	0	0	-0.0655809	-0.376162	0.419619	0.763454	0.986738	0	0
0.1	2.30451	1.50847	-0.660049	0.716063	-0.590986	0.929054	0.196672	0.0267454	-0.361329	0.353229	0.113262	0	0	0.162967	-0.244917	-0.106749	1.16293	-0.0748633	0	0	-0.143608	0.105196	-0.0841327	-0.0639153	-0.326191	0.418052	0.61913	1.28682	0	0	-0.0696619	-0.374951	0.427197	0.760426	0.986186	0	0
0.11	2.27839	1.50424	-0.651911	0.718816	-0.58365	0.930991	0.183344	0.0404344	-0.337037	0.341713	0.106445	0	0	0.1809	-0.253176	-0.122057	1.17286	-0.0615939	0	0	-0.151514	0.109241	-0.0631464	-0.0574136	-0.33464	0.423321	0.627693	1.2701	0	0	-0.0693315	-0.367434	0.429838	0.753833	0.992602	0	0
0.12	2.44901	1.51338	-0.814384	0.719895	-0.573776	0.932194	0.163727	0.0261123	-0.355502	0.333516	0.118071	0	0	0.200438	-0.235798	-0.115912	1.17417	-0.0504611	0	0	-0.149624	0.0924056	-0.0712792	-0.0583188	-0.330535	0.414947	0.630354	1.27674	0	0	-0.0793425	-0.371188	0.433953	0.756753	0.992263	0	0
0.13	2.53493	1.51623	-0.905642	0.721724	-0.565285	0.933632	0.148483	0.0242712	-0.352731	0.324845	0.121011	0	0	0.217983	-0.230596	-0.123756	1.17294	-0.0387644	0	0	-0.151815	0.0851549	-0.0643819	-0.0571023	-0.332437	0.409126	0.638708	1.27466	0	0	-0.0842747	-0.371283	0.44358	0.757912	0.979324	0	0
0.14	2.62149	1.51827	-0.997623	0.723519	-0.556728	0.935053	0.132684	0.0231503	-0.34928	0.315247	0.123295	0	0	0.234124	-0.226268	-0.133518	1.16706	-0.0286317	0	0	-0.153698	0.0785226	-0.0579315	-0.0555891	-0.333759	0.401683	0.646001	1.281	0	0	-0.0904101	-0.369095	0.445085	0.757255	0.983514	0	0
0.15	2.72082	1.5196	-1.10314	0.725299	-0.548213	0.93645	0.116494	0.021742	-0.345041	0.305521	0.125979	0	0	0.248312	-0.222045	-0.145927	1.15702	-0.0178978	0	0	-0.15598	0.071654	-0.0505927	-0.0547377	-0.335034	0.390449	0.655617	1.28211	0	0	-0.0961349	-0.366571	0.446495	0.75642	0.986649	0	0
0.16	2.83042	1.52009	-1.22026	0.727092	-0.539785	0.937792	0.100138	0.0198235	-0.340402	0.295898	0.129006	0	0	0.260408	-0.218052	-0.161502	1.14304	-0.00599078	0	0	-0.158962	0.064543	-0.0418355	-0.0547341	-0.337077	0.379775	0.66779	1.2828	0	0	-0.101618	-0.363703	0.447169	0.755964	0.989084	0	0
0.17	2.9408	1.51786	-1.33882	0.728978	-0.531277	0.93924	0.0803824	0.0192566	-0.331883	0.283415	0.130326	0	0	0.268353	-0.215512	-0.180151	1.12487	0.00677713	0	0	-0.16417	0.0576885	-0.0329018	-0.0546283	-0.339912	0.371795	0.68267	1.27325	0	0	-0.10798	-0.360727	0.444657	0.757471	0.987813	0	0
0.18	3.03919	1.51534	-1.44512	0.730759	-0.522792	0.940557	0.0614828	0.0182078	-0.323493	0.271955	0.131853	0	0	0.275621	-0.212861	-0.199723	1.10338	0.0180653	0	0	-0.168781	0.050818	-0.0248975	-0.0529624	-0.34247	0.365993	0.694095	1.26949	0	0	-0.114833	-0.357595	0.441372	0.758846	0.986655	0	0
0.19	3.13198	1.51239	-1.54655	0.73246	-0.514529	0.941735	0.043481	0.0163458	-0.314086	0.261553	0.133954	0	0	0.281917	-0.209864	-0.221082	1.07866	0.0282692	0	0	-0.173874	0.0437948	-0.0163704	-0.0509985	-0.34579	0.361049	0.707114	1.26637	0	0	-0.121051	-0.354009	0.437778	0.759932	0.984831	0	0
0.2	-3.07471	1.50901	-1.63038	0.733999	-0.50639	0.942753	0.0255569	0.0145282	-0.305985	0.25131	0.136382	0	0	0.288025	-0.206834	-0.241819	1.05137	0.0363921	0	0	-0.179022	0.037328	-0.00881131	-0.048889	-0.349203	0.356601	0.720564	1.26289	0	0	-0.126651	-0.350305	0.433519	0.761294	0.982038	0	0
0.21	-3.03174	1.50621	-1.67685	0.735189	-0.497939	0.94359	0.00648416	0.0146125	-0.301977	0.238643	0.13797	0	0	0.295013	-0.204381	-0.259116	1.02179	0.042787	0	0	-0.182616	0.0328112	-0.0056142	-0.0464712	-0.351473	0.3509	0.732331	1.25807	0	0	-0.133714	-0.346419	0.42774	0.762298	0.978751	0	0
0.22	-2.99597	1.5028	-1.71729	0.736398	-0.489419	0.944317	-0.0131678	0.0146264	-0.296566	0.226027	0.139872	0	0	0.299369	-0.202752	-0.280013	0.989025	0.0487949	0	0	-0.186492	0.0283872	-0.00132424	-0.04442	-0.354391	0.346892	0.744326	1.25466	0	0	-0.140292	-0.342343	0.423316	0.762312	0.975069	0	0
0.23	-2.99728	1.49931	-1.72351	0.737688	-0.48045	0.944682	-0.0336151	0.0165869	-0.289914	0.213527	0.143136	0	0	0.300542	-0.219349	-0.331924	0.960292	0.0557682	0	0	-0.189773	0.0265061	0.00570782	-0.0437002	-0.359121	0.344028	0.758852	1.25119	0	0	-0.147778	-0.337381	0.419112	0.762788	0.971027	0	0
0.24	-2.96212	1.49755	-1.76349	0.73865	-0.472228	0.944941	-0.0497929	0.0152778	-0.28563	0.203673	0.146653	0	0	0.304916	-0.215473	-0.35339	0.922716	0.0606445	0	0	-0.192485	0.0222459	0.0100084	-0.0404262	-0.361958	0.340589	0.769895	1.24655	0	0	-0.152337	-0.332938	0.41663	0.761402	0.967745	0	0
0.25	-2.93465	1.49439	-1.79592	0.739507	-0.464075	0.945196	-0.0684827	0.0144807	-0.278403	0.191114	0.148442	0	0	0.306476	-0.211136	-0.375946	0.882007	0.0642175	0	0	-0.197215	0.0181703	0.0151771	-0.0387725	-0.363159	0.326797	0.78241	1.25903	0	0	-0.155309	-0.329007	0.417686	0.759624	0.952681	0	0
0.26	-2.91356	1.49419	-1.82038	0.740116	-0.456024	0.944955	-0.0825529	0.0139153	-0.276021	0.182136	0.152467	0	0	0.311926	-0.206665	-0.395942	0.840759	0.0665488	0	0	-0.198739	0.015517	0.0174651	-0.0344583	-0.366286	0.325891	0.792884	1.24943	0	0	-0.158967	-0.323408	0.412505	0.756847	0.96348	0	0
0.27	-2.89678	1.49405	-1.84004	0.740647	-0.44801	0.944538	-0.0968074	0.0137808	-0.273234	0.172767	0.156526	0	0	0.316634	-0.201864	-0.416199	0.797212	0.06814	0	0	-0.200335	0.0132073	0.0192919	-0.0306688	-0.368446	0.322067	0.80325	1.25023	0	0	-0.161693	-0.319015	0.41198	0.754356	0.959637	0	0
0.28	-2.88293	1.49438	-1.85658	0.741086	-0.440019	0.943918	-0.110361	0.0138725	-0.270796	0.16387	0.160741	0	0	0.321151	-0.19637	-0.435939	0.751382	0.068862	0	0	-0.201659	0.0112437	0.0212005	-0.027449	-0.370424	0.317194	0.814093	1.25141	0	0	-0.163601	-0.314794	0.413164	0.750747	0.954514	0	0
0.29	-2.87261	1.49517	-1.86917	0.741337	-0.432115	0.943118	-0.122915	0.0141496	-0.268106	0.15597	0.165065	0	0	0.325776	-0.190136	-0.454379	0.703985	0.0695891	0	0	-0.202844	0.00982726	0.0231182	-0.024573	-0.372476	0.312189	0.825013	1.25419	0	0	-0.164105	-0.310445	0.415791	0.747003	0.949527	0	0
0.3	-2.86336	1.49643	-1.88021	0.741395	-0.424285	0.942121	-0.134424	0.0142995	-0.266122	0.149118	0.17002	0	0	0.330586	-0.182818	-0.470753	0.655427	0.0711653	0	0	-0.203906	0.00880996	0.0243444	-0.0213977	-0.374389	0.307073	0.835563	1.25703	0	0	-0.164017	-0.306027	0.418688	0.74377	0.945943	0	0
0.31	-2.85144	1.49864	-1.8933	0.741302	-0.416607	0.940896	-0.144221	0.0143992	-0.264289	0.143382	0.175563	0	0	0.336259	-0.174005	-0.48404	0.60547	0.073658	0	0	-0.204412	0.00806878	0.0244686	-0.0173019	-0.375785	0.302232	0.844877	1.25949	0	0	-0.163364	-0.301535	0.42125	0.739565	0.942827	0	0
0.32	-2.83305	1.50155	-1.91179	0.741031	-0.408985	0.939483	-0.152454	0.0142018	-0.263397	0.139089	0.18172	0	0	0.342298	-0.163008	-0.493017	0.55344	0.0767392	0	0	-0.204152	0.00724021	0.0233843	-0.0130432	-0.376274	0.29642	0.853019	1.26186	0	0	-0.16232	-0.297335	0.424801	0.734366	0.940398	0	0
0.33	-2.80029	1.50396	-1.9437	0.740594	-0.401249	0.937992	-0.160348	0.0127005	-0.2645	0.136372	0.189062	0	0	0.346225	-0.148108	-0.495979	0.49659	0.0789078	0	0	-0.203803	0.00535932	0.0216098	-0.0097213	-0.375736	0.288913	0.860539	1.26557	0	0	-0.160437	-0.293743	0.430804	0.728397	0.938353	0	0
